<svg width="500" height="500" viewBox="0 0 500 500" fill="none" xmlns="http://www.w3.org/2000/svg">
<rect width="500" height="500" fill="white"/>
<path d="M125.64 309.92H120.072L120.432 308.408H125.232L125.64 309.92ZM122.976 303.08L119.352 314H117.36L122.712 298.832H123.288L128.64 314H126.576L122.976 303.08ZM132.848 314V312.32H135.8V300.728H133.016V299.048H140.72V300.728H137.768V312.344H140.864V314H132.848ZM164.52 314.072L159.528 299.024H161.592L165.192 310.208L168.6 299.048H170.568L165.648 314.072H164.52ZM174.848 314V312.32H177.8V300.728H175.016V299.048H182.72V300.728H179.768V312.344H182.864V314H174.848ZM192.88 314.24C191.904 314.24 191.008 314.088 190.192 313.784C189.392 313.464 188.696 313 188.104 312.392L189.136 310.64L189.232 310.424L189.4 310.52C189.432 310.632 189.472 310.76 189.52 310.904C189.584 311.032 189.704 311.192 189.88 311.384C190.296 311.72 190.768 311.992 191.296 312.2C191.824 312.392 192.416 312.488 193.072 312.488C193.504 312.488 193.896 312.432 194.248 312.32C194.6 312.192 194.904 312.024 195.16 311.816C195.432 311.608 195.64 311.36 195.784 311.072C195.928 310.784 196 310.472 196 310.136C196 309.88 195.968 309.648 195.904 309.44C195.856 309.232 195.76 309.04 195.616 308.864C195.472 308.688 195.28 308.512 195.04 308.336C194.8 308.16 194.488 307.968 194.104 307.76C193.72 307.552 193.256 307.328 192.712 307.088C191.688 306.672 190.872 306.232 190.264 305.768C189.672 305.304 189.248 304.808 188.992 304.28C188.736 303.752 188.608 303.184 188.608 302.576C188.608 301.84 188.8 301.192 189.184 300.632C189.568 300.072 190.104 299.632 190.792 299.312C191.496 298.992 192.312 298.832 193.24 298.832C193.816 298.832 194.36 298.912 194.872 299.072C195.4 299.216 195.888 299.424 196.336 299.696C196.784 299.968 197.184 300.312 197.536 300.728L196.384 302.168L196.24 302.36L196.072 302.24C196.056 302.112 196.024 301.984 195.976 301.856C195.928 301.728 195.816 301.568 195.64 301.376C195.288 301.04 194.912 300.816 194.512 300.704C194.112 300.576 193.632 300.512 193.072 300.512C192.704 300.512 192.368 300.56 192.064 300.656C191.776 300.752 191.528 300.896 191.32 301.088C191.112 301.28 190.944 301.496 190.816 301.736C190.704 301.96 190.648 302.2 190.648 302.456C190.648 302.712 190.68 302.944 190.744 303.152C190.808 303.344 190.912 303.536 191.056 303.728C191.2 303.92 191.4 304.12 191.656 304.328C191.928 304.52 192.264 304.72 192.664 304.928C193.08 305.12 193.576 305.336 194.152 305.576C194.904 305.896 195.528 306.208 196.024 306.512C196.52 306.816 196.904 307.144 197.176 307.496C197.464 307.832 197.672 308.2 197.8 308.6C197.928 308.984 197.992 309.424 197.992 309.92C197.992 310.608 197.816 311.288 197.464 311.96C197.112 312.632 196.56 313.184 195.808 313.616C195.056 314.032 194.08 314.24 192.88 314.24ZM202.848 314V312.32H205.8V300.728H203.016V299.048H210.72V300.728H207.768V312.344H210.864V314H202.848ZM216.056 314V299.048H220.424C221.288 299.048 222.04 299.136 222.68 299.312C223.32 299.488 223.848 299.744 224.264 300.08C224.68 300.4 224.984 300.784 225.176 301.232C225.384 301.68 225.488 302.176 225.488 302.72C225.488 303.168 225.4 303.616 225.224 304.064C225.064 304.496 224.824 304.888 224.504 305.24C224.184 305.576 223.784 305.832 223.304 306.008C223.72 306.168 224.096 306.376 224.432 306.632C224.784 306.888 225.08 307.184 225.32 307.52C225.56 307.84 225.744 308.192 225.872 308.576C226.016 308.96 226.088 309.352 226.088 309.752C226.088 310.392 225.968 310.976 225.728 311.504C225.504 312.016 225.16 312.464 224.696 312.848C224.232 313.216 223.64 313.504 222.92 313.712C222.2 313.904 221.36 314 220.4 314H216.056ZM218.072 312.272H220.688C221.344 312.272 221.912 312.184 222.392 312.008C222.888 311.832 223.272 311.552 223.544 311.168C223.816 310.784 223.952 310.288 223.952 309.68C223.952 309.12 223.832 308.632 223.592 308.216C223.352 307.784 222.968 307.448 222.44 307.208C221.912 306.952 221.192 306.824 220.28 306.824H218.072V312.272ZM218.072 305.168H220.184C221 305.168 221.648 305.072 222.128 304.88C222.608 304.688 222.944 304.424 223.136 304.088C223.344 303.736 223.448 303.352 223.448 302.936C223.448 302.616 223.392 302.328 223.28 302.072C223.168 301.8 222.992 301.568 222.752 301.376C222.528 301.168 222.224 301.008 221.84 300.896C221.456 300.784 220.992 300.728 220.448 300.728H218.072V305.168ZM230.848 314V312.32H233.8V300.728H231.016V299.048H238.72V300.728H235.768V312.344H238.864V314H230.848ZM244.512 299.048H246.576H246.816V299.24C246.72 299.336 246.656 299.44 246.624 299.552C246.608 299.664 246.6 299.856 246.6 300.128V312.296H253.68V314H244.512V299.048ZM258.848 314V312.32H261.8V300.728H259.016V299.048H266.72V300.728H263.768V312.344H266.864V314H258.848ZM275.848 314V300.8H271.672V299.024H282.208V300.8H277.864V314H275.848ZM290.136 314V308.096L285.576 299.048H287.784L291.264 305.96L294.384 299.048H296.472L292.272 308.096V314H290.136ZM321.64 309.92H316.072L316.432 308.408H321.232L321.64 309.92ZM318.976 303.08L315.352 314H313.36L318.712 298.832H319.288L324.64 314H322.576L318.976 303.08ZM333.024 314.288C331.408 314.288 330.176 313.808 329.328 312.848C328.496 311.872 328.08 310.528 328.08 308.816V299.048H330.072H330.312V299.24C330.216 299.336 330.152 299.44 330.12 299.552C330.104 299.664 330.096 299.856 330.096 300.128V308.84C330.096 309.992 330.312 310.912 330.744 311.6C331.176 312.272 331.944 312.608 333.048 312.608C334.152 312.608 334.92 312.272 335.352 311.6C335.8 310.912 336.024 309.968 336.024 308.768V299.048H337.992V308.744C337.992 310.008 337.784 311.048 337.368 311.864C336.952 312.68 336.368 313.288 335.616 313.688C334.88 314.088 334.016 314.288 333.024 314.288ZM342.2 314.024V299.048H345.8C346.68 299.048 347.416 299.128 348.008 299.288C348.6 299.448 349.104 299.68 349.52 299.984C349.936 300.272 350.312 300.64 350.648 301.088C350.984 301.536 351.256 302.048 351.464 302.624C351.688 303.184 351.856 303.792 351.968 304.448C352.08 305.104 352.136 305.824 352.136 306.608C352.104 307.76 351.952 308.792 351.68 309.704C351.424 310.616 351.032 311.392 350.504 312.032C349.992 312.672 349.328 313.168 348.512 313.52C347.696 313.856 346.696 314.024 345.512 314.024H342.2ZM344.144 312.44H345.44C346.56 312.44 347.464 312.216 348.152 311.768C348.84 311.304 349.344 310.64 349.664 309.776C350 308.912 350.16 307.88 350.144 306.68C350.144 305.448 349.992 304.384 349.688 303.488C349.4 302.592 348.936 301.904 348.296 301.424C347.656 300.944 346.792 300.704 345.704 300.704H344.144V312.44ZM356.848 314V312.32H359.8V300.728H357.016V299.048H364.72V300.728H361.768V312.344H364.864V314H356.848ZM373.848 314V300.8H369.672V299.024H380.208V300.8H375.864V314H373.848ZM401.848 314V300.8H397.672V299.024H408.208V300.8H403.864V314H401.848ZM417.024 314.264C415.856 314.264 414.864 313.968 414.048 313.376C413.248 312.784 412.632 311.912 412.2 310.76C411.784 309.608 411.576 308.216 411.576 306.584C411.576 304.984 411.784 303.616 412.2 302.48C412.632 301.328 413.248 300.448 414.048 299.84C414.864 299.216 415.856 298.904 417.024 298.904C418.192 298.904 419.176 299.216 419.976 299.84C420.776 300.448 421.384 301.328 421.8 302.48C422.232 303.616 422.448 304.984 422.448 306.584C422.448 308.216 422.232 309.608 421.8 310.76C421.384 311.912 420.776 312.784 419.976 313.376C419.176 313.968 418.192 314.264 417.024 314.264ZM417.024 312.56C417.728 312.56 418.328 312.336 418.824 311.888C419.336 311.424 419.72 310.752 419.976 309.872C420.248 308.976 420.384 307.88 420.384 306.584C420.384 305.352 420.248 304.296 419.976 303.416C419.72 302.52 419.336 301.832 418.824 301.352C418.328 300.872 417.728 300.632 417.024 300.632C416.32 300.632 415.712 300.872 415.2 301.352C414.688 301.832 414.296 302.52 414.024 303.416C413.768 304.296 413.64 305.352 413.64 306.584C413.64 307.88 413.768 308.976 414.024 309.872C414.296 310.752 414.688 311.424 415.2 311.888C415.712 312.336 416.32 312.56 417.024 312.56ZM431.024 314.264C429.856 314.264 428.864 313.968 428.048 313.376C427.248 312.784 426.632 311.912 426.2 310.76C425.784 309.608 425.576 308.216 425.576 306.584C425.576 304.984 425.784 303.616 426.2 302.48C426.632 301.328 427.248 300.448 428.048 299.84C428.864 299.216 429.856 298.904 431.024 298.904C432.192 298.904 433.176 299.216 433.976 299.84C434.776 300.448 435.384 301.328 435.8 302.48C436.232 303.616 436.448 304.984 436.448 306.584C436.448 308.216 436.232 309.608 435.8 310.76C435.384 311.912 434.776 312.784 433.976 313.376C433.176 313.968 432.192 314.264 431.024 314.264ZM431.024 312.56C431.728 312.56 432.328 312.336 432.824 311.888C433.336 311.424 433.72 310.752 433.976 309.872C434.248 308.976 434.384 307.88 434.384 306.584C434.384 305.352 434.248 304.296 433.976 303.416C433.72 302.52 433.336 301.832 432.824 301.352C432.328 300.872 431.728 300.632 431.024 300.632C430.32 300.632 429.712 300.872 429.2 301.352C428.688 301.832 428.296 302.52 428.024 303.416C427.768 304.296 427.64 305.352 427.64 306.584C427.64 307.88 427.768 308.976 428.024 309.872C428.296 310.752 428.688 311.424 429.2 311.888C429.712 312.336 430.32 312.56 431.024 312.56ZM440.512 299.048H442.576H442.816V299.24C442.72 299.336 442.656 299.44 442.624 299.552C442.608 299.664 442.6 299.856 442.6 300.128V312.296H449.68V314H440.512V299.048Z" fill="#1F1D1E"/>
<path d="M226 184.1C226 179.461 229.761 175.7 234.4 175.7H260.8C265.439 175.7 269.2 179.461 269.2 184.1V202.1C269.2 203.425 268.125 204.5 266.8 204.5H228.4C227.075 204.5 226 203.425 226 202.1V184.1Z" fill="#1F1D1E"/>
<path d="M230.8 210.5C230.8 209.174 231.874 208.1 233.2 208.1H271.6C272.925 208.1 274 209.174 274 210.5V234.5C274 235.825 272.925 236.9 271.6 236.9H233.2C231.874 236.9 230.8 235.825 230.8 234.5V210.5Z" fill="#1F1D1E"/>
<path d="M226 242.9C226 241.575 227.075 240.5 228.4 240.5H266.8C268.125 240.5 269.2 241.575 269.2 242.9V260.9C269.2 265.539 265.439 269.3 260.8 269.3H234.4C229.761 269.3 226 265.539 226 260.9V242.9Z" fill="#1F1D1E"/>
</svg>
